<svg xmlns="http://www.w3.org/2000/svg" viewBox="0 0 888 888">
  <defs>
    <style>
      .cls-1 {
        fill: #000025;
      }

      .cls-2 {
        fill: #f2f2f2;
      }

      .cls-3, .cls-6 {
        fill: #296da9;
      }

      .cls-4 {
        fill: #29abe2;
      }

      .cls-5 {
        fill: #fbb03b;
      }

      .cls-6 {
        opacity: 0.6;
      }
    </style>
  </defs>
  <title>Fichier 1</title>
  <g id="Calque_2" data-name="Calque 2">
    <g id="Calque_1-2" data-name="Calque 1">
      <rect class="cls-1" width="888" height="888" rx="225.74"/>
      <path class="cls-2" d="M402,232.93c68.63,1.09,99,45.88,99,89.94,0,54.91-48.77,86-96.09,89.94-21.31,1.45-41.9,1.45-59.24,1.81V530.21H284.94V233.29ZM403.06,359c22-2.88,35.4-15.17,35.4-35,0-21.32-8.67-31.79-34-35-18.06-2.53-37.93-3.25-58.88-3.25v76.21C364.77,361.88,385,361.16,403.06,359Z"/>
      <polygon class="cls-3" points="321.24 150.99 434.44 166.11 338.72 225.02 227.08 215.06 321.24 150.99"/>
      <path class="cls-4" d="M339.62,228.09c19.31-10,37.47-24.87,56.79-34.85l9.2,39c-1.66,3.86-44.91,32.13-55.71,35-8,1.6-62.75-2.24-68.67-6.68l-9-38"/>
      <path class="cls-5" d="M262.88,209.21l-9.56,8.19a113,113,0,0,0-1.54,53.22,18.19,18.19,0,0,0,11.59.72,17.9,17.9,0,0,0,8.72-5.52,114.55,114.55,0,0,1-5.54-46.94l10.76-8.59Z"/>
      <path class="cls-6" d="M338.16,227.86l-65.55-5.39,9,38c5.36,4,50.74,7.54,65.21,7C343.42,254.37,340.46,241.18,338.16,227.86Z"/>
      <path class="cls-4" d="M579.06,252q7.23,8.46,7.23,21.52,0,21.87-13.75,36.87-13.23,14.28-34.93,18.69l-4.94-25.05q12.18-2.46,17.46-6.88A28.32,28.32,0,0,1,536,287.14a27.64,27.64,0,0,1-5.29-16.4,27.71,27.71,0,0,1,27.7-27.69Q571.48,243.05,579.06,252Z"/>
      <path class="cls-2" d="M602.76,652.07c0,46.6-37.93,79.1-84.88,84.17-6.5.36-13.37.72-20.23.72H384.59V440.77l114.87-.37c52.37,0,95.35,34.68,95.35,86.33,0,23.48-10.11,43.71-26,58.52C589.76,600.78,603.12,624.26,602.76,652.07ZM461.53,565.38c11.92,0,23.48-.36,34.31-1.08,20.59-1.81,35.76-12.64,35.76-35,0-22.76-15.17-33.95-35.76-36.12-10.83-.72-22.39-1.08-34.31-1.08H447.08v73.32ZM447.08,686h15.17c15.17,0,31.43-.36,46.24-2.16,19.14-2.53,31.42-13.37,31.06-34.32,0-18.78-11.2-29.62-28.9-32.51-18.42-4-38.65-4-53.46-4H447.08Z"/>
    </g>
  </g>
</svg>
